<?xml version="1.0" standalone="no"?>
<!DOCTYPE svg PUBLIC "-//W3C//DTD SVG 20010904//EN"
 "http://www.w3.org/TR/2001/REC-SVG-20010904/DTD/svg10.dtd">
<svg version="1.0" xmlns="http://www.w3.org/2000/svg"
 width="1300.000000pt" height="1300.000000pt" viewBox="0 0 1300.000000 1300.000000"
 preserveAspectRatio="xMidYMid meet">
<metadata>
Created by potrace 1.11, written by Peter Selinger 2001-2013
</metadata>
<g transform="translate(0.000000,1300.000000) scale(0.100000,-0.100000)"
fill="#000000" stroke="none">
<path d="M0 6500 l0 -6500 6500 0 6500 0 0 6500 0 6500 -6500 0 -6500 0 0
-6500z m5490 3155 c179 -24 297 -67 409 -150 106 -78 219 -235 285 -395 19
-47 486 -1230 1037 -2630 551 -1400 1018 -2574 1037 -2610 49 -88 121 -163
185 -191 44 -20 73 -24 183 -27 l132 -4 7 -161 c4 -89 8 -241 9 -337 l1 -174
-75 -19 c-100 -25 -368 -34 -493 -17 -197 27 -371 98 -478 198 -102 94 -214
266 -295 452 -21 47 -281 711 -580 1475 -351 900 -547 1390 -555 1390 -10 0
-36 -85 -86 -275 -62 -237 -141 -475 -571 -1725 l-498 -1450 -477 -3 c-262 -1
-477 1 -477 5 0 5 383 1019 851 2255 l852 2247 -223 538 c-122 296 -242 579
-266 629 -79 160 -159 241 -282 287 -50 19 -77 22 -214 21 l-158 -1 0 317 0
318 23 5 c26 7 242 35 307 40 116 9 315 5 410 -8z"/>
</g>
</svg>
